<?xml version="1.0" encoding="UTF-8"?>
<!DOCTYPE svg PUBLIC "-//W3C//DTD SVG 1.1//EN" "http://www.w3.org/Graphics/SVG/1.1/DTD/svg11.dtd">
<svg xmlns="http://www.w3.org/2000/svg" version="1.1" width="2000px" height="1500px" style="shape-rendering:geometricPrecision; text-rendering:geometricPrecision; image-rendering:optimizeQuality; fill-rule:evenodd; clip-rule:evenodd" xmlns:xlink="http://www.w3.org/1999/xlink">
<g><path style="opacity:1" fill="#67e840" d="M -0.5,-0.5 C 666.167,-0.5 1332.83,-0.5 1999.5,-0.5C 1999.5,499.5 1999.5,999.5 1999.5,1499.5C 1332.83,1499.5 666.167,1499.5 -0.5,1499.5C -0.5,999.5 -0.5,499.5 -0.5,-0.5 Z"/></g>
<g><path style="opacity:1" fill="#030f02" d="M 972.5,305.5 C 1113.11,300.752 1231.61,349.086 1328,450.5C 1417.27,552.005 1454.61,670.339 1440,805.5C 1418.73,945.314 1348.89,1053.15 1230.5,1129C 1109.09,1199.25 981.758,1212.25 848.5,1168C 709.139,1113.64 616.973,1015.14 572,872.5C 535.473,735.325 557.139,608.325 637,491.5C 720.682,379.395 832.515,317.395 972.5,305.5 Z"/></g>
<g><path style="opacity:1" fill="#66e640" d="M 613.5,728.5 C 612.539,730.265 612.205,732.265 612.5,734.5C 603.167,734.5 593.833,734.5 584.5,734.5C 590.189,614.3 637.855,514.467 727.5,435C 801.391,372.188 887.058,338.688 984.5,334.5C 984.5,344.167 984.5,353.833 984.5,363.5C 862.414,370.788 763.914,422.454 689,518.5C 642.936,580.849 617.769,650.849 613.5,728.5 Z"/></g>
<g><path style="opacity:1" fill="#66e640" d="M 1413.5,734.5 C 1404.17,734.5 1394.83,734.5 1385.5,734.5C 1385.81,730.629 1385.48,726.962 1384.5,723.5C 1372.82,595.243 1313.82,495.409 1207.5,424C 1148.23,386.855 1083.56,366.688 1013.5,363.5C 1013.5,353.833 1013.5,344.167 1013.5,334.5C 1148.03,342.168 1255.53,399.501 1336,506.5C 1384.83,574.487 1410.66,650.487 1413.5,734.5 Z"/></g>
<g><path style="opacity:1" fill="#67e840" d="M 968.5,391.5 C 1094.48,385.289 1197.98,429.956 1279,525.5C 1352.77,621.996 1374.43,729.33 1344,847.5C 1305.57,969.597 1225.74,1051.1 1104.5,1092C 978.009,1127.17 864.342,1103.17 763.5,1020C 669.181,933.078 629.348,825.578 644,697.5C 662.433,590.384 716.6,506.884 806.5,447C 856.211,415.819 910.211,397.319 968.5,391.5 Z"/></g>
<g><path style="opacity:1" fill="#030802" d="M 872.5,688.5 C 882.167,688.5 891.833,688.5 901.5,688.5C 901.333,712.169 901.5,735.836 902,759.5C 902.785,761.286 903.951,762.786 905.5,764C 911.962,764.849 918.295,764.349 924.5,762.5C 924.808,764.924 924.474,767.257 923.5,769.5C 915.028,773.54 906.695,773.374 898.5,769C 896.951,767.786 895.785,766.286 895,764.5C 893.531,741.566 893.031,718.566 893.5,695.5C 886.5,695.5 879.5,695.5 872.5,695.5C 872.5,693.167 872.5,690.833 872.5,688.5 Z"/></g>
<g><path style="opacity:1" fill="#040802" d="M 1098.5,688.5 C 1106.33,687.495 1109.5,690.828 1108,698.5C 1103.16,704.079 1098.82,703.746 1095,697.5C 1094.33,695.833 1094.33,694.167 1095,692.5C 1096.38,691.295 1097.54,689.962 1098.5,688.5 Z"/></g>
<g><path style="opacity:1" fill="#040802" d="M 755.5,690.5 C 773.057,688.898 784.724,696.398 790.5,713C 790.355,713.772 790.022,714.439 789.5,715C 787.385,715.557 785.385,716.391 783.5,717.5C 781.256,709.09 776.256,702.924 768.5,699C 759.114,696.45 751.947,699.283 747,707.5C 744.781,711.271 743.115,715.271 742,719.5C 741.333,726.833 741.333,734.167 742,741.5C 743.093,750.862 747.593,758.028 755.5,763C 764.532,766.239 772.032,764.072 778,756.5C 779.849,752.802 781.682,749.136 783.5,745.5C 785.729,746.577 788.063,747.244 790.5,747.5C 784.968,767.933 771.968,775.433 751.5,770C 740.711,763.61 734.545,754.11 733,741.5C 729.368,723.208 734.201,707.708 747.5,695C 750.391,693.726 753.058,692.226 755.5,690.5 Z"/></g>
<g><path style="opacity:1" fill="#050a03" d="M 850.5,729.5 C 850.5,743.167 850.5,756.833 850.5,770.5C 848.167,770.5 845.833,770.5 843.5,770.5C 843.662,768.473 843.495,766.473 843,764.5C 842.283,765.044 841.783,765.711 841.5,766.5C 829.46,775.026 817.96,774.36 807,764.5C 801.865,748.102 808.032,739.435 825.5,738.5C 831.479,738.562 837.145,739.895 842.5,742.5C 844.836,727.002 838.17,720.169 822.5,722C 818.509,723.078 814.676,724.578 811,726.5C 805.839,722.657 806.339,719.824 812.5,718C 823.368,713.018 834.034,713.352 844.5,719C 847.6,721.919 849.6,725.419 850.5,729.5 Z"/></g>
<g><path style="opacity:1" fill="#050b03" d="M 960.5,714.5 C 976.022,713.499 986.522,720.166 992,734.5C 995.347,748.273 991.514,759.44 980.5,768C 961.372,776.524 947.872,771.024 940,751.5C 936.977,733.535 943.81,721.202 960.5,714.5 Z"/></g>
<g><path style="opacity:1" fill="#15320e" d="M 1035.5,726.5 C 1035.44,727.043 1035.11,727.376 1034.5,727.5C 1033.51,723.893 1033.18,720.226 1033.5,716.5C 1026.17,716.5 1018.83,716.5 1011.5,716.5C 1011.5,718.5 1011.5,720.5 1011.5,722.5C 1010.53,720.393 1010.2,718.059 1010.5,715.5C 1018.5,715.5 1026.5,715.5 1034.5,715.5C 1034.19,719.371 1034.52,723.038 1035.5,726.5 Z"/></g>
<g><path style="opacity:1" fill="#030601" d="M 1062.5,716.5 C 1062.8,719.059 1062.47,721.393 1061.5,723.5C 1051.34,720.274 1042.84,722.607 1036,730.5C 1034.54,741.731 1034.04,753.064 1034.5,764.5C 1039.83,764.5 1045.17,764.5 1050.5,764.5C 1050.5,766.5 1050.5,768.5 1050.5,770.5C 1037.5,770.5 1024.5,770.5 1011.5,770.5C 1011.5,768.5 1011.5,766.5 1011.5,764.5C 1016.5,764.5 1021.5,764.5 1026.5,764.5C 1026.5,750.5 1026.5,736.5 1026.5,722.5C 1021.5,722.5 1016.5,722.5 1011.5,722.5C 1011.5,720.5 1011.5,718.5 1011.5,716.5C 1018.83,716.5 1026.17,716.5 1033.5,716.5C 1033.18,720.226 1033.51,723.893 1034.5,727.5C 1035.11,727.376 1035.44,727.043 1035.5,726.5C 1040.19,717.083 1047.86,713.25 1058.5,715C 1059.74,715.791 1061.08,716.291 1062.5,716.5 Z"/></g>
<g><path style="opacity:1" fill="#16350f" d="M 1105.5,716.5 C 1096.17,716.5 1086.83,716.5 1077.5,716.5C 1077.5,718.5 1077.5,720.5 1077.5,722.5C 1076.53,720.393 1076.2,718.059 1076.5,715.5C 1086.35,715.173 1096.01,715.506 1105.5,716.5 Z"/></g>
<g><path style="opacity:1" fill="#010200" d="M 1265.5,770.5 C 1263.17,770.5 1260.83,770.5 1258.5,770.5C 1258.83,756.323 1258.5,742.323 1257.5,728.5C 1256.44,722.294 1252.78,720.128 1246.5,722C 1244.57,722.422 1243.57,723.589 1243.5,725.5C 1242.5,740.324 1242.17,755.324 1242.5,770.5C 1240.17,770.5 1237.83,770.5 1235.5,770.5C 1235.67,756.163 1235.5,741.829 1235,727.5C 1233.12,721.845 1229.29,720.011 1223.5,722C 1222.06,722.377 1221.06,723.21 1220.5,724.5C 1219.5,739.658 1219.17,754.991 1219.5,770.5C 1217.17,770.5 1214.83,770.5 1212.5,770.5C 1212.5,752.167 1212.5,733.833 1212.5,715.5C 1214.83,715.5 1217.17,715.5 1219.5,715.5C 1219.34,717.199 1219.51,718.866 1220,720.5C 1224.05,715.684 1229.22,714.184 1235.5,716C 1238,717.167 1239.83,719 1241,721.5C 1247.18,714.756 1254.18,713.756 1262,718.5C 1263,720.167 1264,721.833 1265,723.5C 1265.5,739.163 1265.67,754.83 1265.5,770.5 Z"/></g>
<g><path style="opacity:1" fill="#3b8825" d="M 1062.5,716.5 C 1063.8,719.024 1063.8,721.691 1062.5,724.5C 1061.89,724.376 1061.56,724.043 1061.5,723.5C 1062.47,721.393 1062.8,719.059 1062.5,716.5 Z"/></g>
<g><path style="opacity:1" fill="#020501" d="M 1105.5,716.5 C 1105.05,731.572 1105.55,746.572 1107,761.5C 1109.83,763.961 1113.16,764.961 1117,764.5C 1121,764.568 1124.83,763.901 1128.5,762.5C 1128.81,764.924 1128.47,767.257 1127.5,769.5C 1119.89,773.208 1112.23,773.374 1104.5,770C 1101.13,767.635 1098.96,764.468 1098,760.5C 1097.5,747.838 1097.33,735.171 1097.5,722.5C 1090.83,722.5 1084.17,722.5 1077.5,722.5C 1077.5,720.5 1077.5,718.5 1077.5,716.5C 1086.83,716.5 1096.17,716.5 1105.5,716.5 Z"/></g>
<g><path style="opacity:1" fill="#020501" d="M 1193.5,770.5 C 1190.83,770.5 1188.17,770.5 1185.5,770.5C 1185.66,767.813 1185.5,765.146 1185,762.5C 1184.28,763.044 1183.78,763.711 1183.5,764.5C 1177.25,771.074 1169.59,773.24 1160.5,771C 1153.9,768.333 1149.74,763.5 1148,756.5C 1147.5,742.837 1147.33,729.171 1147.5,715.5C 1150.17,715.5 1152.83,715.5 1155.5,715.5C 1155.33,728.171 1155.5,740.838 1156,753.5C 1159.4,763.452 1166.24,766.952 1176.5,764C 1179.9,762.6 1182.74,760.433 1185,757.5C 1185.5,743.504 1185.67,729.504 1185.5,715.5C 1188.17,715.5 1190.83,715.5 1193.5,715.5C 1193.5,733.833 1193.5,752.167 1193.5,770.5 Z"/></g>
<g><path style="opacity:1" fill="#66e540" d="M 959.5,722.5 C 971.333,720.164 979.5,724.498 984,735.5C 986.216,745.239 984.049,753.739 977.5,761C 963.341,768.168 953.508,764.335 948,749.5C 945.858,737.799 949.691,728.799 959.5,722.5 Z"/></g>
<g><path style="opacity:1" fill="#33721f" d="M 1220.5,724.5 C 1220.5,740.167 1220.5,755.833 1220.5,771.5C 1217.61,771.806 1214.95,771.473 1212.5,770.5C 1214.83,770.5 1217.17,770.5 1219.5,770.5C 1219.17,754.991 1219.5,739.658 1220.5,724.5 Z"/></g>
<g><path style="opacity:1" fill="#398123" d="M 1243.5,725.5 C 1243.5,740.833 1243.5,756.167 1243.5,771.5C 1240.61,771.806 1237.95,771.473 1235.5,770.5C 1237.83,770.5 1240.17,770.5 1242.5,770.5C 1242.17,755.324 1242.5,740.324 1243.5,725.5 Z"/></g>
<g><path style="opacity:1" fill="#34771f" d="M 1257.5,728.5 C 1258.5,742.323 1258.83,756.323 1258.5,770.5C 1260.83,770.5 1263.17,770.5 1265.5,770.5C 1263.05,771.473 1260.39,771.806 1257.5,771.5C 1257.5,757.167 1257.5,742.833 1257.5,728.5 Z"/></g>
<g><path style="opacity:1" fill="#419629" d="M 613.5,728.5 C 613.5,730.833 613.5,733.167 613.5,735.5C 603.652,735.827 593.986,735.494 584.5,734.5C 593.833,734.5 603.167,734.5 612.5,734.5C 612.205,732.265 612.539,730.265 613.5,728.5 Z"/></g>
<g><path style="opacity:1" fill="#429829" d="M 1384.5,723.5 C 1385.48,726.962 1385.81,730.629 1385.5,734.5C 1394.83,734.5 1404.17,734.5 1413.5,734.5C 1404.01,735.494 1394.35,735.827 1384.5,735.5C 1384.5,731.5 1384.5,727.5 1384.5,723.5 Z"/></g>
<g><path style="opacity:1" fill="#1e4513" d="M 850.5,729.5 C 851.496,743.323 851.829,757.323 851.5,771.5C 848.5,771.5 845.5,771.5 842.5,771.5C 842.784,769.585 842.451,767.919 841.5,766.5C 841.783,765.711 842.283,765.044 843,764.5C 843.495,766.473 843.662,768.473 843.5,770.5C 845.833,770.5 848.167,770.5 850.5,770.5C 850.5,756.833 850.5,743.167 850.5,729.5 Z"/></g>
<g><path style="opacity:1" fill="#64e23f" d="M 821.5,744.5 C 828.9,743.808 835.9,745.141 842.5,748.5C 843.659,752.122 843.825,755.789 843,759.5C 835.357,765.503 826.857,767.003 817.5,764C 811.665,759.321 810.999,753.988 815.5,748C 817.432,746.541 819.432,745.375 821.5,744.5 Z"/></g>
<g><path style="opacity:1" fill="#43992a" d="M 584.5,764.5 C 593.986,763.506 603.652,763.173 613.5,763.5C 613.5,766.833 613.5,770.167 613.5,773.5C 612.523,770.713 612.19,767.713 612.5,764.5C 603.167,764.5 593.833,764.5 584.5,764.5 Z"/></g>
<g><path style="opacity:1" fill="#429929" d="M 1413.5,764.5 C 1404.17,764.5 1394.83,764.5 1385.5,764.5C 1385.8,767.059 1385.47,769.393 1384.5,771.5C 1384.5,768.833 1384.5,766.167 1384.5,763.5C 1394.35,763.173 1404.01,763.506 1413.5,764.5 Z"/></g>
<g><path style="opacity:1" fill="#66e640" d="M 584.5,764.5 C 593.833,764.5 603.167,764.5 612.5,764.5C 612.19,767.713 612.523,770.713 613.5,773.5C 624.607,902.603 683.607,1003.1 790.5,1075C 849.625,1112.78 914.291,1132.95 984.5,1135.5C 984.5,1145.17 984.5,1154.83 984.5,1164.5C 849.994,1156.84 742.494,1099.51 662,992.5C 613.564,924.36 587.73,848.36 584.5,764.5 Z"/></g>
<g><path style="opacity:1" fill="#66e640" d="M 1413.5,764.5 C 1405.94,898.471 1348.94,1005.64 1242.5,1086C 1174.11,1134.74 1097.78,1160.91 1013.5,1164.5C 1013.5,1154.83 1013.5,1145.17 1013.5,1135.5C 1151.58,1126.25 1257.41,1063.58 1331,947.5C 1362.84,893.131 1380.68,834.464 1384.5,771.5C 1385.47,769.393 1385.8,767.059 1385.5,764.5C 1394.83,764.5 1404.17,764.5 1413.5,764.5 Z"/></g>
<g><path style="opacity:1" fill="#285b18" d="M 1011.5,764.5 C 1011.5,766.5 1011.5,768.5 1011.5,770.5C 1024.5,770.5 1037.5,770.5 1050.5,770.5C 1037.34,771.496 1024.01,771.829 1010.5,771.5C 1010.2,768.941 1010.53,766.607 1011.5,764.5 Z"/></g>
<g><path style="opacity:1" fill="#31711e" d="M 1193.5,770.5 C 1190.71,771.477 1187.71,771.81 1184.5,771.5C 1184.8,768.941 1184.47,766.607 1183.5,764.5C 1183.78,763.711 1184.28,763.044 1185,762.5C 1185.5,765.146 1185.66,767.813 1185.5,770.5C 1188.17,770.5 1190.83,770.5 1193.5,770.5 Z"/></g>
<g><path style="opacity:1" fill="#000200" d="M 752.5,808.5 C 746.021,809.491 739.354,809.824 732.5,809.5C 732.5,803.833 732.5,798.167 732.5,792.5C 739.2,792.17 745.866,792.503 752.5,793.5C 746.537,794.496 740.537,794.829 734.5,794.5C 734.5,796.5 734.5,798.5 734.5,800.5C 755.833,800.833 755.833,801.167 734.5,801.5C 734.5,803.833 734.5,806.167 734.5,808.5C 740.5,808.5 746.5,808.5 752.5,808.5 Z"/></g>
<g><path style="opacity:1" fill="#030701" d="M 780.5,792.5 C 787.863,792.169 795.197,792.503 802.5,793.5C 799.232,794.487 795.898,794.82 792.5,794.5C 791.833,815.833 791.167,815.833 790.5,794.5C 786.671,795.069 783.337,794.402 780.5,792.5 Z"/></g>
<g><path style="opacity:1" fill="#101b09" d="M 836.5,792.5 C 839.85,792.335 843.183,792.502 846.5,793C 850.023,793.662 851.69,795.495 851.5,798.5C 845.897,793.636 840.064,793.302 834,797.5C 832.611,807.098 836.778,810.598 846.5,808C 848.305,807.028 849.972,805.861 851.5,804.5C 852.282,806.329 851.616,807.829 849.5,809C 843.681,811.417 838.181,810.917 833,807.5C 829.018,801.235 830.185,796.235 836.5,792.5 Z"/></g>
<g><path style="opacity:1" fill="#0d1607" d="M 857.5,792.5 C 859.446,797.396 860.113,802.729 859.5,808.5C 865.69,808.177 871.69,808.51 877.5,809.5C 870.833,809.5 864.167,809.5 857.5,809.5C 857.5,803.833 857.5,798.167 857.5,792.5 Z"/></g>
<g><path style="opacity:1" fill="#020401" d="M 884.5,794.5 C 883.539,796.265 883.205,798.265 883.5,800.5C 888.833,800.5 894.167,800.5 899.5,800.5C 894.36,801.488 889.026,801.821 883.5,801.5C 883.5,803.833 883.5,806.167 883.5,808.5C 889.5,808.5 895.5,808.5 901.5,808.5C 895.021,809.491 888.354,809.824 881.5,809.5C 881.5,803.833 881.5,798.167 881.5,792.5C 888.532,792.17 895.532,792.503 902.5,793.5C 896.537,794.496 890.537,794.829 884.5,794.5 Z"/></g>
<g><path style="opacity:1" fill="#0b1306" d="M 946.5,805.5 C 946.783,806.289 947.283,806.956 948,807.5C 948.499,802.511 948.666,797.511 948.5,792.5C 950.453,798.074 951.12,804.074 950.5,810.5C 949.448,810.649 948.448,810.483 947.5,810C 943.348,804.881 938.848,800.048 934,795.5C 933.829,800.533 933.329,805.533 932.5,810.5C 931.504,804.537 931.171,798.537 931.5,792.5C 932.552,792.351 933.552,792.517 934.5,793C 938.003,797.669 942.003,801.836 946.5,805.5 Z"/></g>
<g><path style="opacity:1" fill="#48a42d" d="M 948.5,792.5 C 948.666,797.511 948.499,802.511 948,807.5C 947.283,806.956 946.783,806.289 946.5,805.5C 947.167,801.167 947.833,796.833 948.5,792.5 Z"/></g>
<g><path style="opacity:1" fill="#020601" d="M 1004.5,792.5 C 1011.86,792.169 1019.2,792.503 1026.5,793.5C 1023.23,794.487 1019.9,794.82 1016.5,794.5C 1015.83,815.833 1015.17,815.833 1014.5,794.5C 1010.67,795.069 1007.34,794.402 1004.5,792.5 Z"/></g>
<g><path style="opacity:1" fill="#0b1405" d="M 1043.5,803.5 C 1040.04,802.518 1036.37,802.185 1032.5,802.5C 1032.5,805.167 1032.5,807.833 1032.5,810.5C 1030.55,804.926 1029.88,798.926 1030.5,792.5C 1036.62,792.09 1042.62,792.59 1048.5,794C 1051.49,797.864 1050.83,801.031 1046.5,803.5C 1048.29,805.576 1049.95,807.743 1051.5,810C 1050.5,810.667 1049.5,810.667 1048.5,810C 1046.97,807.648 1045.3,805.481 1043.5,803.5 Z"/></g>
<g><path style="opacity:1" fill="#121d0b" d="M 1079.5,792.5 C 1086.53,792.17 1093.53,792.503 1100.5,793.5C 1097.57,794.484 1094.57,794.817 1091.5,794.5C 1091.5,799.167 1091.5,803.833 1091.5,808.5C 1094.57,808.183 1097.57,808.516 1100.5,809.5C 1093.5,810.833 1086.5,810.833 1079.5,809.5C 1082.43,808.516 1085.43,808.183 1088.5,808.5C 1088.5,803.833 1088.5,799.167 1088.5,794.5C 1084.99,795.055 1081.99,794.388 1079.5,792.5 Z"/></g>
<g><path style="opacity:1" fill="#0a1105" d="M 1105.5,792.5 C 1106.55,792.351 1107.55,792.517 1108.5,793C 1112.63,798.134 1117.13,802.968 1122,807.5C 1122.17,802.467 1122.67,797.467 1123.5,792.5C 1124.5,798.463 1124.83,804.463 1124.5,810.5C 1123.45,810.649 1122.45,810.483 1121.5,810C 1117.37,804.866 1112.87,800.032 1108,795.5C 1107.83,800.533 1107.33,805.533 1106.5,810.5C 1105.5,804.537 1105.17,798.537 1105.5,792.5 Z"/></g>
<g><path style="opacity:1" fill="#2f6f1d" d="M 1155.5,792.5 C 1154.88,798.598 1155.55,804.265 1157.5,809.5C 1156.79,810.404 1155.79,810.737 1154.5,810.5C 1154.18,804.31 1154.51,798.31 1155.5,792.5 Z"/></g>
<g><path style="opacity:1" fill="#111b0a" d="M 1155.5,792.5 C 1157.34,794.279 1158.01,796.612 1157.5,799.5C 1162.31,800.487 1167.31,800.821 1172.5,800.5C 1172.5,797.833 1172.5,795.167 1172.5,792.5C 1172.83,792.5 1173.17,792.5 1173.5,792.5C 1173.67,798.176 1173.5,803.843 1173,809.5C 1172.81,806.964 1172.31,804.631 1171.5,802.5C 1166.83,802.5 1162.17,802.5 1157.5,802.5C 1157.5,804.833 1157.5,807.167 1157.5,809.5C 1155.55,804.265 1154.88,798.598 1155.5,792.5 Z"/></g>
<g><path style="opacity:1" fill="#1f4813" d="M 1173.5,792.5 C 1174.49,798.31 1174.82,804.31 1174.5,810.5C 1173.5,810.5 1172.5,810.5 1171.5,810.5C 1171.5,807.833 1171.5,805.167 1171.5,802.5C 1172.31,804.631 1172.81,806.964 1173,809.5C 1173.5,803.843 1173.67,798.176 1173.5,792.5 Z"/></g>
<g><path style="opacity:1" fill="#0b1505" d="M 1217.5,803.5 C 1214.04,802.518 1210.37,802.185 1206.5,802.5C 1206.5,805.167 1206.5,807.833 1206.5,810.5C 1204.55,804.926 1203.88,798.926 1204.5,792.5C 1210.62,792.09 1216.62,792.59 1222.5,794C 1225.49,797.864 1224.83,801.031 1220.5,803.5C 1222.29,805.576 1223.95,807.743 1225.5,810C 1224.5,810.667 1223.5,810.667 1222.5,810C 1220.97,807.648 1219.3,805.481 1217.5,803.5 Z"/></g>
<g><path style="opacity:1" fill="#081004" d="M 1229.5,792.5 C 1234.18,792.334 1238.85,792.501 1243.5,793C 1249.09,795.451 1250.92,799.617 1249,805.5C 1247.79,807.049 1246.29,808.215 1244.5,809C 1239.6,810.325 1234.6,810.825 1229.5,810.5C 1229.5,804.5 1229.5,798.5 1229.5,792.5 Z"/></g>
<g><path style="opacity:1" fill="#65e43f" d="M 1033.5,794.5 C 1037.85,794.334 1042.18,794.501 1046.5,795C 1049.36,797.558 1049.03,799.391 1045.5,800.5C 1041.5,800.5 1037.5,800.5 1033.5,800.5C 1033.5,798.5 1033.5,796.5 1033.5,794.5 Z"/></g>
<g><path style="opacity:1" fill="#65e43f" d="M 1207.5,794.5 C 1211.85,794.334 1216.18,794.501 1220.5,795C 1223.12,796.969 1223.12,798.802 1220.5,800.5C 1216.17,800.5 1211.83,800.5 1207.5,800.5C 1207.5,798.5 1207.5,796.5 1207.5,794.5 Z"/></g>
<g><path style="opacity:1" fill="#66e53f" d="M 1232.5,794.5 C 1237.21,794.085 1241.71,794.752 1246,796.5C 1248.83,801.636 1247.66,805.303 1242.5,807.5C 1239.17,807.5 1235.83,807.5 1232.5,807.5C 1232.5,803.167 1232.5,798.833 1232.5,794.5 Z"/></g>
<g><path style="opacity:1" fill="#3d8b26" d="M 884.5,794.5 C 884.5,796.167 884.5,797.833 884.5,799.5C 889.695,799.179 894.695,799.513 899.5,800.5C 894.167,800.5 888.833,800.5 883.5,800.5C 883.205,798.265 883.539,796.265 884.5,794.5 Z"/></g>
<g><path style="opacity:1" fill="#347720" d="M 1172.5,792.5 C 1172.5,795.167 1172.5,797.833 1172.5,800.5C 1167.31,800.821 1162.31,800.487 1157.5,799.5C 1162.17,799.5 1166.83,799.5 1171.5,799.5C 1171.2,796.941 1171.53,794.607 1172.5,792.5 Z"/></g>
<g><path style="opacity:1" fill="#388123" d="M 1033.5,794.5 C 1033.5,796.5 1033.5,798.5 1033.5,800.5C 1037.5,800.5 1041.5,800.5 1045.5,800.5C 1041.37,801.485 1037.03,801.818 1032.5,801.5C 1032.2,798.941 1032.53,796.607 1033.5,794.5 Z"/></g>
<g><path style="opacity:1" fill="#0d1707" d="M 1187.5,792.5 C 1188.98,792.238 1190.31,792.571 1191.5,793.5C 1194.83,798.833 1198.17,804.167 1201.5,809.5C 1200.5,810.833 1199.5,810.833 1198.5,809.5C 1197.96,808.252 1197.29,807.085 1196.5,806C 1191.83,805.333 1187.17,805.333 1182.5,806C 1181.26,807.154 1180.26,808.488 1179.5,810C 1178.67,810.688 1178,810.521 1177.5,809.5C 1181.11,803.943 1184.44,798.276 1187.5,792.5 Z"/></g>
<g><path style="opacity:1" fill="#62dd3d" d="M 1188.5,794.5 C 1190.97,796.74 1192.97,799.407 1194.5,802.5C 1190.88,803.659 1187.21,803.825 1183.5,803C 1185.57,800.358 1187.23,797.525 1188.5,794.5 Z"/></g>
<g><path style="opacity:1" fill="#367c22" d="M 1207.5,794.5 C 1207.5,796.5 1207.5,798.5 1207.5,800.5C 1211.83,800.5 1216.17,800.5 1220.5,800.5C 1216.03,801.486 1211.36,801.819 1206.5,801.5C 1206.2,798.941 1206.53,796.607 1207.5,794.5 Z"/></g>
<g><path style="opacity:1" fill="#0c1607" d="M 765.5,792.5 C 766.822,792.33 767.989,792.663 769,793.5C 771.915,798.998 775.081,804.332 778.5,809.5C 778.167,809.833 777.833,810.167 777.5,810.5C 776.059,809.135 774.726,807.635 773.5,806C 768.833,805.333 764.167,805.333 759.5,806C 758.707,807.085 758.04,808.252 757.5,809.5C 756.5,810.833 755.5,810.833 754.5,809.5C 758.426,803.975 762.093,798.309 765.5,792.5 Z"/></g>
<g><path style="opacity:1" fill="#62dd3d" d="M 766.5,794.5 C 768.601,797.179 770.601,800.012 772.5,803C 768.789,803.825 765.122,803.659 761.5,802.5C 763.178,799.805 764.844,797.139 766.5,794.5 Z"/></g>
<g><path style="opacity:1" fill="#0c1607" d="M 914.5,792.5 C 915.822,792.33 916.989,792.663 918,793.5C 921.375,799.085 924.875,804.585 928.5,810C 925.678,810.699 924.012,809.532 923.5,806.5C 918.533,805.338 913.533,805.171 908.5,806C 907.707,807.085 907.04,808.252 906.5,809.5C 905.635,810.583 904.635,810.749 903.5,810C 907.303,804.223 910.969,798.389 914.5,792.5 Z"/></g>
<g><path style="opacity:1" fill="#62dd3d" d="M 915.5,794.5 C 917.601,797.179 919.601,800.012 921.5,803C 917.833,803.667 914.167,803.667 910.5,803C 912.052,800.057 913.719,797.223 915.5,794.5 Z"/></g>
<g><path style="opacity:1" fill="#0e1807" d="M 1063.5,792.5 C 1064.82,792.33 1065.99,792.663 1067,793.5C 1070.38,799.085 1073.88,804.585 1077.5,810C 1075,810.28 1073.33,809.113 1072.5,806.5C 1067.5,805.167 1062.5,805.167 1057.5,806.5C 1056.67,809.113 1055,810.28 1052.5,810C 1056.39,804.282 1060.06,798.449 1063.5,792.5 Z"/></g>
<g><path style="opacity:1" fill="#62de3d" d="M 1064.5,794.5 C 1067.03,796.875 1069.03,799.709 1070.5,803C 1066.83,803.667 1063.17,803.667 1059.5,803C 1061.56,800.386 1063.22,797.553 1064.5,794.5 Z"/></g>
<g><path style="opacity:1" fill="#32741f" d="M 1043.5,803.5 C 1040.17,803.5 1036.83,803.5 1033.5,803.5C 1033.8,806.059 1033.47,808.393 1032.5,810.5C 1033.47,808.393 1033.8,806.059 1033.5,803.5C 1036.83,803.5 1040.17,803.5 1043.5,803.5 Z"/></g>
<g><path style="opacity:1" fill="#316f1e" d="M 1217.5,803.5 C 1214.17,803.5 1210.83,803.5 1207.5,803.5C 1207.8,806.059 1207.47,808.393 1206.5,810.5C 1207.47,808.393 1207.8,806.059 1207.5,803.5C 1210.83,803.5 1214.17,803.5 1217.5,803.5 Z"/></g>
<g><path style="opacity:1" fill="#47a22c" d="M 1232.5,794.5 C 1232.5,798.833 1232.5,803.167 1232.5,807.5C 1235.83,807.5 1239.17,807.5 1242.5,807.5C 1239.04,808.482 1235.37,808.815 1231.5,808.5C 1231.18,803.637 1231.51,798.97 1232.5,794.5 Z"/></g>
<g><path style="opacity:1" fill="#14220d" d="M 1262.5,807.5 C 1263.5,807.5 1264.5,807.5 1265.5,807.5C 1265.5,808.5 1265.5,809.5 1265.5,810.5C 1264.5,810.5 1263.5,810.5 1262.5,810.5C 1262.5,809.5 1262.5,808.5 1262.5,807.5 Z"/></g>
<g><path style="opacity:1" fill="#1c4112" d="M 752.5,808.5 C 753.043,808.56 753.376,808.893 753.5,809.5C 746.344,810.819 739.344,810.819 732.5,809.5C 739.354,809.824 746.021,809.491 752.5,808.5 Z"/></g>
<g><path style="opacity:1" fill="#183910" d="M 857.5,792.5 C 857.5,798.167 857.5,803.833 857.5,809.5C 864.167,809.5 870.833,809.5 877.5,809.5C 870.687,810.491 863.687,810.825 856.5,810.5C 856.177,804.31 856.51,798.31 857.5,792.5 Z"/></g>
<g><path style="opacity:1" fill="#1b3f11" d="M 901.5,808.5 C 902.043,808.56 902.376,808.893 902.5,809.5C 895.344,810.819 888.344,810.819 881.5,809.5C 888.354,809.824 895.021,809.491 901.5,808.5 Z"/></g>
<g><path style="opacity:1" fill="#14250e" d="M 964.5,807.5 C 965.5,807.5 966.5,807.5 967.5,807.5C 967.5,808.5 967.5,809.5 967.5,810.5C 966.5,810.5 965.5,810.5 964.5,810.5C 964.5,809.5 964.5,808.5 964.5,807.5 Z"/></g>
</svg>
