<?xml version="1.0" standalone="no"?>
<!DOCTYPE svg PUBLIC "-//W3C//DTD SVG 20010904//EN"
 "http://www.w3.org/TR/2001/REC-SVG-20010904/DTD/svg10.dtd">
<svg version="1.0" xmlns="http://www.w3.org/2000/svg"
 width="225.000000pt" height="225.000000pt" viewBox="0 0 225.000000 225.000000"
 preserveAspectRatio="xMidYMid meet">

<g transform="translate(0.000000,225.000000) scale(0.100000,-0.100000)"
fill="#000000" stroke="none">
<path d="M991 1574 c-278 -75 -420 -387 -295 -651 91 -191 325 -301 529 -248
250 65 405 321 341 562 -32 121 -117 234 -221 293 -101 58 -240 75 -354 44z
m109 -28 c0 -9 -17 -16 -47 -20 -66 -8 -163 -56 -217 -107 -55 -49 -111 -157
-121 -228 -5 -34 -12 -51 -21 -51 -8 0 -14 1 -14 3 0 38 30 138 57 190 55 105
157 183 278 213 67 17 85 17 85 0z m102 3 c106 -23 212 -92 267 -175 37 -57
68 -136 72 -189 6 -62 -16 -51 -30 17 -7 34 -24 84 -38 111 -52 104 -183 198
-295 213 -31 4 -48 11 -48 20 0 17 5 17 72 3z m62 -82 c31 -14 77 -46 104 -71
223 -209 114 -578 -188 -636 -109 -21 -229 13 -313 90 -218 199 -139 541 148
637 61 20 182 10 249 -20z m-545 -421 c32 -161 158 -284 324 -317 59 -12 76
-37 21 -31 -189 20 -348 176 -378 370 -5 31 -3 42 7 42 8 0 18 -24 26 -64z
m825 32 c-32 -186 -138 -313 -299 -361 -80 -25 -115 -28 -115 -13 0 8 22 18
58 25 165 32 291 158 323 323 7 36 17 58 25 58 10 0 12 -9 8 -32z"/>
<path d="M839 1169 c-8 -16 -8 -28 0 -45 13 -28 33 -31 52 -6 13 15 12 16 -3
4 -22 -17 -38 -7 -38 23 0 30 16 40 38 23 15 -12 16 -11 3 5 -18 23 -38 22
-52 -4z"/>
<path d="M987 1182 c6 -4 13 -23 15 -41 2 -20 9 -36 18 -39 12 -4 13 -2 3 9
-7 7 -13 28 -13 46 0 25 -4 33 -17 33 -12 0 -14 -3 -6 -8z"/>
<path d="M934 1151 c19 -7 19 -8 -3 -14 -28 -7 -23 -31 7 -35 19 -3 22 1 22
27 0 26 -4 31 -22 30 -21 0 -22 -1 -4 -8z m16 -31 c0 -5 -7 -10 -15 -10 -8 0
-15 5 -15 10 0 6 7 10 15 10 8 0 15 -4 15 -10z"/>
<path d="M1055 1150 c-9 -15 4 -50 19 -50 20 0 39 27 32 45 -6 17 -42 20 -51
5z m41 -11 c10 -17 -13 -36 -27 -22 -12 12 -4 33 11 33 5 0 12 -5 16 -11z"/>
<path d="M1135 1130 c0 -24 4 -30 20 -29 11 0 14 3 8 6 -19 7 -16 30 5 42 15
9 14 10 -8 11 -21 0 -25 -5 -25 -30z"/>
<path d="M1208 1153 c6 -2 12 -16 12 -29 0 -16 5 -24 18 -23 10 0 12 3 5 6 -7
2 -13 16 -13 29 0 16 -5 24 -17 23 -11 0 -13 -3 -5 -6z"/>
<path d="M1274 1130 c1 -18 7 -26 24 -28 19 -3 22 1 21 30 -1 29 -2 30 -8 9
-9 -33 -29 -38 -34 -9 -4 21 -4 21 -3 -2z"/>
<path d="M1341 1128 l1 -33 8 30 8 30 2 -30 2 -30 8 30 c6 24 8 26 9 8 0 -13
6 -23 12 -23 6 0 9 10 7 23 -2 16 -11 23 -30 25 -26 3 -28 1 -27 -30z"/>
</g>
</svg>
